<svg xmlns="http://www.w3.org/2000/svg" xmlns:xlink="http://www.w3.org/1999/xlink" width="16" height="16" version="1.1" viewBox="0 0 16 16"><g id="surface1"><defs><style id="current-color-scheme" type="text/css">.ColorScheme-Text{color:#eee}</style></defs><path style="fill:currentColor" d="M 8 1 C 4.121094 1 1 4.121094 1 8 C 1 11.878906 4.121094 15 8 15 C 11.878906 15 15 11.878906 15 8 C 15 4.121094 11.878906 1 8 1 Z M 8 3 C 9.023438 3 9.96875 3.304688 10.757812 3.824219 L 3.828125 10.757812 C 3.304688 9.96875 3 9.023438 3 8 C 3 5.230469 5.230469 3 8 3 Z M 12.171875 5.238281 C 12.695312 6.03125 13 6.976562 13 8 C 13 10.769531 10.769531 13 8 13 C 6.976562 13 6.03125 12.695312 5.242188 12.171875 Z M 12.171875 5.238281" class="ColorScheme-Text"/></g></svg>