<?xml version="1.0" encoding="UTF-8"?>
<svg xmlns="http://www.w3.org/2000/svg" xmlns:xlink="http://www.w3.org/1999/xlink" width="16px" height="16px" viewBox="0 0 16 16" version="1.1">
<g id="surface1">
<defs>
  <style id="current-color-scheme" type="text/css">
   .ColorScheme-Text { color:#eeeeee; } .ColorScheme-Highlight { color:#424242; }
  </style>
 </defs>
<path style="fill:currentColor" class="ColorScheme-Text" d="M 3 1 C 1.890625 1 1 1.890625 1 3 C 1 3.742188 1.402344 4.386719 2 4.730469 L 2 13 L 6 13 L 6 15 L 9 12 L 6 9 L 6 11 L 4 11 L 4 4.730469 C 4.597656 4.386719 5 3.742188 5 3 C 5 1.890625 4.109375 1 3 1 Z M 10 1 L 7 4 L 10 7 L 10 5 L 12 5 L 12 8 L 14 8 L 14 3 L 10 3 Z M 10 1 "/>
<path style=" stroke:none;fill-rule:nonzero;fill:rgb(93.725491%,32.549021%,31.37255%);fill-opacity:1;" d="M 8.679688 8.664062 L 10.800781 15.027344 L 12.214844 12.199219 L 15.042969 10.785156 Z M 8.679688 8.664062 "/>
</g>
</svg>
