<?xml version="1.0" encoding="UTF-8"?>
<svg xmlns="http://www.w3.org/2000/svg" xmlns:xlink="http://www.w3.org/1999/xlink" width="16px" height="16px" viewBox="0 0 16 16" version="1.1">
<g id="surface1">
<defs>
  <style id="current-color-scheme" type="text/css">
   .ColorScheme-Text { color:#eeeeee; } .ColorScheme-Highlight { color:#424242; }
  </style>
 </defs>
<path style="fill:currentColor" class="ColorScheme-Text" d="M 2 1 L 2 7 L 4 7 L 4 3 L 9 3 L 12 6 L 12 9 L 14 9 L 14 5 L 10 1 Z M 12 9 L 10 9 L 10 11 L 12 11 Z M 12 11 L 12 13 L 14 13 L 14 11 Z M 12 13 L 10 13 L 10 15 L 12 15 Z M 10 13 L 10 11 L 8 11 L 8 13 Z M 8 13 L 6 13 L 6 15 L 8 15 Z M 6 13 L 6 11 L 4 11 L 4 13 Z M 4 13 L 2 13 L 2 15 L 4 15 Z M 4 11 L 4 9 L 2 9 L 2 11 Z M 6 11 L 8 11 L 8 9 L 6 9 Z M 6 11 "/>
</g>
</svg>
