<?xml version="1.0" encoding="UTF-8"?>
<svg xmlns="http://www.w3.org/2000/svg" xmlns:xlink="http://www.w3.org/1999/xlink" width="16px" height="16px" viewBox="0 0 16 16" version="1.1">
<g id="surface1">
     <defs>
  <style id="current-color-scheme" type="text/css">
   .ColorScheme-Text { color:#eeeeee; } .ColorScheme-Highlight { color:#424242; }
  </style>
 </defs>
<path style="fill:currentColor" class="ColorScheme-Text"  d="M 8 1 C 5.785156 1 4 2.785156 4 5 L 4 8 L 2 8 L 2 15 L 14 15 L 14 8 L 12 8 L 12 5 C 12 2.785156 10.214844 1 8 1 Z M 8 3 C 9.109375 3 10 3.890625 10 5 L 10 8 L 6 8 L 6 5 C 6 3.890625 6.890625 3 8 3 Z M 4 10 L 12 10 L 12 13 L 4 13 Z M 4 10 "/>
</g>
</svg>
