<?xml version="1.0" encoding="UTF-8"?>
<svg xmlns="http://www.w3.org/2000/svg" xmlns:xlink="http://www.w3.org/1999/xlink" width="16px" height="16px" viewBox="0 0 16 16" version="1.1">
<g id="surface1">
<defs>
  <style id="current-color-scheme" type="text/css">
   .ColorScheme-Text { color:#eeeeee; } .ColorScheme-Highlight { color:#424242; }
  </style>
 </defs>
<path style="fill:currentColor" class="ColorScheme-Text" d="M 6 1 L 5 3 L 13 3 L 13 5 L 6 5 L 5 3 L 1 3 L 1 9 L 3 9 L 3 7 L 13 7 L 13 9 L 15 9 L 15 1 Z M 8 9 C 6.691406 9 5.582031 9.832031 5.171875 11 L 1 11 L 1 13 L 5.171875 13 C 5.582031 14.167969 6.691406 15 8 15 C 9.308594 15 10.417969 14.167969 10.828125 13 L 15 13 L 15 11 L 10.828125 11 C 10.417969 9.832031 9.308594 9 8 9 Z M 8 11 C 8.554688 11 9 11.445312 9 12 C 9 12.554688 8.554688 13 8 13 C 7.445312 13 7 12.554688 7 12 C 7 11.445312 7.445312 11 8 11 Z M 8 11 "/>
</g>
</svg>
