<?xml version="1.0" encoding="UTF-8"?>
<svg xmlns="http://www.w3.org/2000/svg" xmlns:xlink="http://www.w3.org/1999/xlink" width="16px" height="16px" viewBox="0 0 16 16" version="1.1">
<g id="surface1">
<defs>
  <style id="current-color-scheme" type="text/css">
   .ColorScheme-Text { color:#eeeeee; } .ColorScheme-Highlight { color:#424242; }
  </style>
 </defs>
<path style="fill:currentColor" class="ColorScheme-Text" d="M 2 1 L 2 3 L 4 3 L 4 1 Z M 4 3 L 4 5 L 6 5 L 6 3 Z M 6 3 L 8 3 L 8 1 L 6 1 Z M 8 3 L 8 5 L 10 5 L 10 3 Z M 10 3 L 12 3 L 12 1 L 10 1 Z M 12 3 L 12 5 L 14 5 L 14 3 Z M 4 5 L 2 5 L 2 7 L 4 7 Z M 10.050781 6.0625 C 7.835938 6.0625 6.050781 7.847656 6.050781 10.066406 C 6.050781 12.28125 7.835938 14.0625 10.050781 14.0625 C 10.792969 14.0625 11.484375 13.859375 12.082031 13.507812 L 13.585938 15.015625 L 15 13.601562 L 13.496094 12.09375 C 13.847656 11.5 14.050781 10.808594 14.050781 10.066406 C 14.050781 7.847656 12.265625 6.0625 10.050781 6.0625 Z M 10.050781 8.0625 C 11.160156 8.0625 12.050781 8.957031 12.050781 10.066406 C 12.050781 11.171875 11.160156 12.0625 10.050781 12.0625 C 8.941406 12.0625 8.050781 11.171875 8.050781 10.066406 C 8.050781 8.957031 8.941406 8.0625 10.050781 8.0625 Z M 2 9 L 2 15 L 5 15 L 5 13 L 4 13 L 4 9 Z M 2 9 "/>
</g>
</svg>
