<svg xmlns="http://www.w3.org/2000/svg" xmlns:xlink="http://www.w3.org/1999/xlink" width="16" height="16" version="1.1" viewBox="0 0 16 16"><g id="surface1"><defs><style id="current-color-scheme" type="text/css">.ColorScheme-Text{color:#eee}</style></defs><path style="fill:currentColor" d="M 2 15 L 2 9 L 4 9 L 4 13 L 12 13 L 12 7 L 14 7 L 14 15 Z M 12 7 L 10 7 L 10 5 L 12 5 Z M 12 5 L 12 3 L 14 3 L 14 5 Z M 12 3 L 10 3 L 10 1 L 12 1 Z M 10 3 L 10 5 L 8 5 L 8 3 Z M 8 3 L 6 3 L 6 1 L 8 1 Z M 6 3 L 6 5 L 4 5 L 4 3 Z M 4 3 L 2 3 L 2 1 L 4 1 Z M 4 5 L 4 7 L 2 7 L 2 5 Z M 6 5 L 8 5 L 8 7 L 6 7 Z M 6 5" class="ColorScheme-Text"/></g></svg>