<?xml version="1.0" encoding="UTF-8"?>
<svg xmlns="http://www.w3.org/2000/svg" xmlns:xlink="http://www.w3.org/1999/xlink" width="16px" height="16px" viewBox="0 0 16 16" version="1.1">
<g id="surface1">
     <defs>
  <style id="current-color-scheme" type="text/css">
     .ColorScheme-Text { color:#eeeeee; } .ColorScheme-Highlight { color:#424242; }
  </style>
 </defs>
<path style="fill:currentColor" class="ColorScheme-Text" d="M 11 1 C 10.257812 1 9.613281 1.402344 9.269531 2 L 1 2 L 1 4 L 9.269531 4 C 9.613281 4.597656 10.257812 5 11 5 C 11.742188 5 12.386719 4.597656 12.730469 4 L 15 4 L 15 2 L 12.730469 2 C 12.386719 1.402344 11.742188 1 11 1 Z M 11 2 C 11.554688 2 12 2.445312 12 3 C 12 3.554688 11.554688 4 11 4 C 10.445312 4 10 3.554688 10 3 C 10 2.445312 10.445312 2 11 2 Z M 5 6 C 4.257812 6 3.613281 6.402344 3.269531 7 L 1 7 L 1 9 L 3.269531 9 C 3.613281 9.597656 4.257812 10 5 10 C 5.742188 10 6.386719 9.597656 6.730469 9 L 15 9 L 15 7 L 6.730469 7 C 6.386719 6.402344 5.742188 6 5 6 Z M 5 7 C 5.554688 7 6 7.445312 6 8 C 6 8.554688 5.554688 9 5 9 C 4.445312 9 4 8.554688 4 8 C 4 7.445312 4.445312 7 5 7 Z M 8 11 C 7.257812 11 6.613281 11.402344 6.269531 12 L 1 12 L 1 14 L 6.269531 14 C 6.613281 14.597656 7.257812 15 8 15 C 8.742188 15 9.386719 14.597656 9.730469 14 L 15 14 L 15 12 L 9.730469 12 C 9.386719 11.402344 8.742188 11 8 11 Z M 8 12 C 8.554688 12 9 12.445312 9 13 C 9 13.554688 8.554688 14 8 14 C 7.445312 14 7 13.554688 7 13 C 7 12.445312 7.445312 12 8 12 Z M 8 12 "/>
</g>
</svg>
