<?xml version="1.0" encoding="UTF-8"?>
<svg xmlns="http://www.w3.org/2000/svg" xmlns:xlink="http://www.w3.org/1999/xlink" width="16px" height="16px" viewBox="0 0 16 16" version="1.1">
<g id="surface1">
     <defs>
  <style id="current-color-scheme" type="text/css">
     .ColorScheme-Text { color:#eeeeee; } .ColorScheme-Highlight { color:#424242; }
  </style>
 </defs>
<path style="fill:currentColor" class="ColorScheme-Text" d="M 6.5 1 C 3.453125 1 1 3.453125 1 6.5 C 1 9.546875 3.453125 12 6.5 12 C 7.660156 12 8.734375 11.644531 9.621094 11.035156 L 13.777344 15.191406 L 15.191406 13.777344 L 11.035156 9.621094 C 11.644531 8.734375 12 7.660156 12 6.5 C 12 3.453125 9.546875 1 6.5 1 Z M 6.5 3 C 8.4375 3 10 4.5625 10 6.5 C 10 8.4375 8.4375 10 6.5 10 C 4.5625 10 3 8.4375 3 6.5 C 3 4.5625 4.5625 3 6.5 3 Z M 6.5 3 "/>
</g>
</svg>
