<?xml version="1.0" encoding="UTF-8"?>
<svg xmlns="http://www.w3.org/2000/svg" xmlns:xlink="http://www.w3.org/1999/xlink" width="16px" height="16px" viewBox="0 0 16 16" version="1.1">
<g id="surface1">
     <defs>
  <style id="current-color-scheme" type="text/css">
   .ColorScheme-Text { color:#eeeeee; } .ColorScheme-Highlight { color:#424242; }
  </style>
 </defs>
<path style="fill:currentColor" class="ColorScheme-Text" d="M 6 1 L 5 3 L 13 3 L 13 5 L 15 5 L 15 1 Z M 5 3 L 1 3 L 1 15 L 5 15 L 5 13 L 3 13 L 3 7 L 7 7 L 7 5 L 6 5 Z M 10.917969 7 C 10.265625 7.011719 9.605469 7.183594 9 7.535156 C 7.378906 8.472656 6.667969 10.351562 7.148438 12.070312 L 9 11 C 9 10.308594 9.355469 9.640625 10 9.269531 C 10.644531 8.898438 11.402344 8.921875 12 9.269531 L 13.851562 8.199219 C 13.070312 7.402344 12.003906 6.976562 10.917969 7 Z M 14.851562 9.929688 L 13 11 C 13 11.691406 12.644531 12.359375 12 12.730469 C 11.355469 13.101562 10.597656 13.078125 10 12.730469 L 8.148438 13.800781 C 9.394531 15.078125 11.378906 15.398438 13 14.464844 C 14.621094 13.527344 15.332031 11.648438 14.851562 9.929688 Z M 14.851562 9.929688 "/>
</g>
</svg>
