<?xml version="1.0" encoding="UTF-8"?>
<svg xmlns="http://www.w3.org/2000/svg" xmlns:xlink="http://www.w3.org/1999/xlink" width="16px" height="16px" viewBox="0 0 16 16" version="1.1">
<g id="surface1">
     <defs>
  <style id="current-color-scheme" type="text/css">
     .ColorScheme-Text { color:#eeeeee; } .ColorScheme-Highlight { color:#424242; }
  </style>
 </defs>
<path style="fill:currentColor" class="ColorScheme-Text" d="M 8 1 C 4.121094 1 1 4.121094 1 8 C 1 11.878906 4.121094 15 8 15 C 11.878906 15 15 11.878906 15 8 C 15 4.121094 11.878906 1 8 1 Z M 8 3 C 10.769531 3 13 5.230469 13 8 C 13 10.769531 10.769531 13 8 13 C 5.230469 13 3 10.769531 3 8 C 3 5.230469 5.230469 3 8 3 Z M 8 4 C 7.445312 4 7 4.445312 7 5 C 7 5.554688 7.445312 6 8 6 C 8.554688 6 9 5.554688 9 5 C 9 4.445312 8.554688 4 8 4 Z M 7 7 L 7 12 L 9 12 L 9 7 Z M 7 7 "/>
</g>
</svg>
