<?xml version="1.0" encoding="UTF-8"?>
<svg xmlns="http://www.w3.org/2000/svg" xmlns:xlink="http://www.w3.org/1999/xlink" width="16px" height="16px" viewBox="0 0 16 16" version="1.1">
<g id="surface1">
     <defs>
  <style id="current-color-scheme" type="text/css">
   .ColorScheme-Text { color:#eeeeee; } .ColorScheme-Highlight { color:#424242; }
  </style>
 </defs>
<path style="fill:currentColor" class="ColorScheme-Text" d="M 2 1 L 2 4 L 1 4 L 1 6 L 2 6 L 2 9 L 6 9 L 6 7 L 4 7 L 4 3 L 6 3 L 6 1 Z M 10 1 L 10 3 L 12 3 L 12 7 L 14 7 L 14 6 L 15 6 L 15 4 L 14 4 L 14 1 Z M 6 4 L 6 6 L 10 6 L 10 4 Z M 11 9 L 11 11 L 9 11 L 9 13 L 11 13 L 11 15 L 13 15 L 13 13 L 15.070312 13 L 15.070312 11 L 13 11 L 13 9 Z M 11 9 "/>
</g>
</svg>
