<?xml version="1.0" encoding="UTF-8"?>
<svg xmlns="http://www.w3.org/2000/svg" xmlns:xlink="http://www.w3.org/1999/xlink" width="16px" height="16px" viewBox="0 0 16 16" version="1.1">
<g id="surface1">
     <defs>
  <style id="current-color-scheme" type="text/css">
     .ColorScheme-Text { color:#eeeeee; } .ColorScheme-Highlight { color:#424242; }
  </style>
 </defs>
<path style="fill:currentColor" class="ColorScheme-Text" d="M 1 1 L 1 15 L 15 15 L 15 1 Z M 3 3 L 13 3 L 13 13 L 3 13 Z M 3 8 C 3 10.769531 5.230469 13 8 13 C 10.769531 13 13 10.769531 13 8 C 13 5.230469 10.769531 3 8 3 C 5.230469 3 3 5.230469 3 8 Z M 8 5 C 9.660156 5 11 6.339844 11 8 C 11 9.660156 9.660156 11 8 11 C 6.339844 11 5 9.660156 5 8 C 5 6.339844 6.339844 5 8 5 Z M 8 5 "/>
</g>
</svg>
