<?xml version="1.0" encoding="UTF-8"?>
<svg xmlns="http://www.w3.org/2000/svg" xmlns:xlink="http://www.w3.org/1999/xlink" width="16px" height="16px" viewBox="0 0 16 16" version="1.1">
<g id="surface1">
<path style=" stroke:none;fill-rule:nonzero;fill:rgb(93.725491%,32.549021%,31.37255%);fill-opacity:1;" d="M 13 9 L 13 11 L 8 11 L 8 13 L 15 13 L 15 9 Z M 2.414062 9.171875 L 1 10.585938 L 2.414062 12 L 1 13.414062 L 2.414062 14.828125 L 3.828125 13.414062 L 5.242188 14.828125 L 6.65625 13.414062 L 5.242188 12 L 6.65625 10.585938 L 5.242188 9.171875 L 3.828125 10.585938 Z M 2.414062 9.171875 "/>
     <defs>
  <style id="current-color-scheme" type="text/css">
   .ColorScheme-Text { color:#eeeeee; } .ColorScheme-Highlight { color:#424242; }
  </style>
 </defs>
<path style="fill:currentColor" class="ColorScheme-Text" d="M 1 7 L 1 3 L 10 3 L 10 1 L 15 4 L 10 7 L 10 5 L 3 5 L 3 7 Z M 1 7 "/>
</g>
</svg>
