<?xml version="1.0" encoding="UTF-8"?>
<svg xmlns="http://www.w3.org/2000/svg" xmlns:xlink="http://www.w3.org/1999/xlink" width="16px" height="16px" viewBox="0 0 16 16" version="1.1">
<g id="surface1">
     <defs>
  <style id="current-color-scheme" type="text/css">
     .ColorScheme-Text { color:#eeeeee; } .ColorScheme-Highlight { color:#424242; }
  </style>
 </defs>
<path style="fill:currentColor" class="ColorScheme-Text" d="M 1 1 L 1 3 L 4 3 L 4 1 Z M 10 1 L 10 3 L 6 3 L 6 7 L 8 7 L 8 5 L 10 5 L 10 7 L 15 4 Z M 1 5 L 1 7 L 4 7 L 4 5 Z M 1 9 L 1 11 L 4 11 L 4 9 Z M 1 13 L 1 15 L 4 15 L 4 13 Z M 1 13 "/>
<path style=" stroke:none;fill-rule:nonzero;fill:rgb(25.882354%,64.705884%,96.078432%);fill-opacity:1;" d="M 11 9 L 6 12 L 11 15 L 11 13 L 15 13 L 15 9 L 13 9 L 13 11 L 11 11 Z M 11 9 "/>
</g>
</svg>
