<svg xmlns="http://www.w3.org/2000/svg" xmlns:xlink="http://www.w3.org/1999/xlink" width="16" height="16" version="1.1" viewBox="0 0 16 16"><g id="surface1"><defs><style id="current-color-scheme" type="text/css">.ColorScheme-Text{color:#eee}</style></defs><path style="fill:currentColor" d="M 6 1 L 6 3 L 15 3 L 15 1 Z M 2 2 L 2 3 L 3 3 L 3 7 L 4 7 L 4 2 Z M 6 5 L 6 7 L 15 7 L 15 5 Z M 2 9 L 2 10 L 4 10 L 4 11 L 2 11 L 2 14 L 5 14 L 5 13 L 3 13 L 3 12 L 5 12 L 5 9 Z M 6 9 L 6 11 L 10 11 L 10 9 Z M 6 13 L 6 15 L 15 15 L 15 13 Z M 6 13" class="ColorScheme-Text"/><path style="stroke:none;fill-rule:nonzero;fill:#42a5f5;fill-opacity:1" d="M 11 11 L 15 11 L 13 8 Z M 11 11"/></g></svg>