<svg xmlns="http://www.w3.org/2000/svg" xmlns:xlink="http://www.w3.org/1999/xlink" width="16" height="16" version="1.1" viewBox="0 0 16 16"><g id="surface1"><defs><style id="current-color-scheme" type="text/css">.ColorScheme-Text{color:#eee}</style></defs><path style="fill:currentColor" d="M 1 1 L 1 3 L 15 3 L 15 1 Z M 1 5 L 1 7 L 15 7 L 15 5 Z M 1 9 L 1 11 L 7 11 L 7 9 Z M 11 9 L 11 11 L 9 11 L 9 13 L 11 13 L 11 15 L 13 15 L 13 13 L 15 13 L 15 11 L 13 11 L 13 9 Z M 1 13 L 1 15 L 7 15 L 7 13 Z M 1 13" class="ColorScheme-Text"/></g></svg>