<?xml version="1.0" encoding="UTF-8"?>
<svg xmlns="http://www.w3.org/2000/svg" xmlns:xlink="http://www.w3.org/1999/xlink" width="16px" height="16px" viewBox="0 0 16 16" version="1.1">
<g id="surface1">
     <defs>
  <style id="current-color-scheme" type="text/css">
     .ColorScheme-Text { color:#eeeeee; } .ColorScheme-Highlight { color:#424242; }
  </style>
 </defs>
<path style="fill:currentColor" class="ColorScheme-Text" d="M 1 1 L 1 15 L 7 15 L 7 13 L 3 13 L 3 3 L 13 3 L 13 8 L 15 8 L 15 1 Z M 13 8 C 13 5.230469 10.769531 3 8 3 C 5.230469 3 3 5.230469 3 8 C 3 10.425781 4.710938 12.441406 7 12.902344 L 7 10.828125 C 5.832031 10.417969 5 9.308594 5 8 C 5 6.339844 6.339844 5 8 5 C 9.660156 5 11 6.339844 11 8 Z M 9 9 L 9 13 L 12 11 Z M 9 9 "/>
<path style=" stroke:none;fill-rule:nonzero;fill:rgb(25.882354%,64.705884%,96.078432%);fill-opacity:1;" d="M 15 15 L 12 13 L 15 11 Z M 15 15 "/>
</g>
</svg>
