<?xml version="1.0" encoding="UTF-8"?>
<svg xmlns="http://www.w3.org/2000/svg" xmlns:xlink="http://www.w3.org/1999/xlink" width="16px" height="16px" viewBox="0 0 16 16" version="1.1">
<g id="surface1">
     <defs>
  <style id="current-color-scheme" type="text/css">
     .ColorScheme-Text { color:#eeeeee; } .ColorScheme-Highlight { color:#424242; }
  </style>
 </defs>
<path style="fill:currentColor" class="ColorScheme-Text" d="M 1 1 L 1 15 L 7 15 L 7 13 L 3 13 L 3 3 L 13 3 L 13 6 L 15 6 L 15 1 Z M 8 3 C 5.230469 3 3 5.230469 3 8 C 3 10.425781 4.710938 12.441406 7 12.902344 L 7 10.828125 C 5.832031 10.417969 5 9.308594 5 8 C 5 6.339844 6.339844 5 8 5 C 8.890625 5 9.6875 5.386719 10.234375 6 L 12.585938 6 C 11.816406 4.230469 10.058594 3 8 3 Z M 13 8 L 13 10.144531 C 12.6875 10.050781 12.351562 10 12 10 C 10.339844 10 9 11.113281 9 12.5 C 9 13.886719 10.339844 15 12 15 C 13.660156 15 15 13.886719 15 12.5 C 15 12.464844 14.996094 12.433594 14.992188 12.398438 L 15 12.398438 L 15 8 Z M 13 8 "/>
</g>
</svg>
