<?xml version="1.0" encoding="UTF-8"?>
<svg xmlns="http://www.w3.org/2000/svg" xmlns:xlink="http://www.w3.org/1999/xlink" width="16px" height="16px" viewBox="0 0 16 16" version="1.1">
<g id="surface1">
     <defs>
  <style id="current-color-scheme" type="text/css">
     .ColorScheme-Text { color:#eeeeee; } .ColorScheme-Highlight { color:#424242; }
  </style>
 </defs>
<path style="fill:currentColor" class="ColorScheme-Text" d="M 1 1 L 1 2 L 7 2 L 7 1 Z M 9 1 L 9 3 L 13 3 L 13 8 L 15 8 L 15 1 Z M 13 8 C 13 5.574219 11.289062 3.558594 9 3.097656 L 9 5.171875 C 10.167969 5.582031 11 6.691406 11 8 Z M 1 3 L 1 4 L 7 4 L 7 3 Z M 1 5 L 1 6 L 7 6 L 7 5 Z M 1 8 L 1 15 L 7 15 L 7 13 L 3 13 L 3 8 Z M 3 8 C 3 10.425781 4.710938 12.441406 7 12.902344 L 7 10.828125 C 5.832031 10.417969 5 9.308594 5 8 Z M 9 9 L 9 13 L 12 11 Z M 9 9 "/>
<path style=" stroke:none;fill-rule:nonzero;fill:rgb(25.882354%,64.705884%,96.078432%);fill-opacity:1;" d="M 15 15 L 12 13 L 15 11 Z M 15 15 "/>
</g>
</svg>
