<?xml version="1.0" encoding="UTF-8"?>
<svg xmlns="http://www.w3.org/2000/svg" xmlns:xlink="http://www.w3.org/1999/xlink" width="16px" height="16px" viewBox="0 0 16 16" version="1.1">
<g id="surface1">
<defs>
  <style id="current-color-scheme" type="text/css">
   .ColorScheme-Text { color:#eeeeee; } .ColorScheme-Highlight { color:#3f3f3f; }
  </style>
 </defs>
<path style="fill:currentColor;fill-opacity:0.392157" class="ColorScheme-Text" d="M 6 6 L 8 6 L 10 4 L 12 6 L 14.601562 5 L 14.601562 13.398438 L 3 13.398438 L 3 7 Z M 6 6 "/>
<defs>
  <style id="current-color-scheme" type="text/css">
   .ColorScheme-Text { color:#eeeeee; } .ColorScheme-Highlight { color:#424242; }
  </style>
 </defs>
<path style="fill:currentColor" class="ColorScheme-Text" d="M 2 1 L 2 12 L 1 12 L 1 14 L 2 14 L 2 15 L 4 15 L 4 14 L 15 14 L 15 12 L 4 12 L 4 11 L 6.800781 11 L 7.800781 9 L 10 9 L 11 11 L 15 11 L 15 10 L 11.800781 10 L 10.800781 8 L 7 8 L 6 10 L 4 10 L 4 7 L 6 7 L 6 6 L 4 6 L 4 1 Z M 7 1 L 7 3 L 8 3 L 8 2 L 9 2 L 9 1 Z M 11 1 L 11 2 L 12 2 L 12 3 L 13 3 L 13 1 Z M 7 5 L 7 7 L 9 7 L 9 6 L 8 6 L 8 5 Z M 12 5 L 12 6 L 11 6 L 11 7 L 13 7 L 13 5 Z M 12 5 "/>
</g>
</svg>
