<?xml version="1.0" encoding="UTF-8"?>
<svg xmlns="http://www.w3.org/2000/svg" xmlns:xlink="http://www.w3.org/1999/xlink" width="16px" height="16px" viewBox="0 0 16 16" version="1.1">
<g id="surface1">
<defs>
  <style id="current-color-scheme" type="text/css">
   .ColorScheme-Text { color:#eeeeee; } .ColorScheme-Highlight { color:#424242; }
  </style>
 </defs>
<path style="fill:currentColor" class="ColorScheme-Text" d="M 2 1 L 2 12 L 1 12 L 1 14 L 2 14 L 2 15 L 4 15 L 4 14 L 15 14 L 15 12 L 4 12 L 4 10 L 6.800781 10 L 7.800781 8 L 10 8 L 11 10 L 15 10 L 15 9 L 11.800781 9 L 10.800781 7 L 7 7 L 6 9 L 4 9 L 4 6 L 6.183594 6 L 8.65625 3.910156 L 11.449219 5.503906 L 14.914062 2.691406 L 14.285156 1.914062 L 11.351562 4.296875 L 8.542969 2.691406 L 5.816406 5 L 4 5 L 4 1 Z M 2 1 "/>
</g>
</svg>
