<?xml version="1.0" encoding="UTF-8"?>
<svg xmlns="http://www.w3.org/2000/svg" xmlns:xlink="http://www.w3.org/1999/xlink" width="16px" height="16px" viewBox="0 0 16 16" version="1.1">
<g id="surface1">
<defs>
  <style id="current-color-scheme" type="text/css">
   .ColorScheme-Text { color:#eeeeee; } .ColorScheme-Highlight { color:#424242; }
  </style>
 </defs>
<path style="fill:currentColor" class="ColorScheme-Text" d="M 2 1 L 2 12 L 1 12 L 1 14 L 2 14 L 2 15 L 4 15 L 4 14 L 15 14 L 15 12 L 4 12 L 4 11 L 6.800781 11 L 7.800781 9 L 10 9 L 11 11 L 15 11 L 15 10 L 11.800781 10 L 10.800781 8 L 7 8 L 6 10 L 4 10 L 4 4 L 6 4 L 9.601562 7 L 11.398438 5.199219 L 15 8 L 15 6.601562 L 11.398438 3.800781 L 9.601562 5.601562 L 6.398438 3 L 4 3 L 4 2 L 8 2 L 8 1 Z M 9.398438 1 L 9.398438 3 L 9.800781 3 L 9.800781 1 Z M 10.398438 1 L 10.398438 3 L 12 3 L 12 1 Z M 12.601562 1 L 12.601562 3 L 14.199219 3 L 14.199219 1 Z M 10.800781 1.398438 L 11.601562 1.398438 L 11.601562 2.601562 L 10.800781 2.601562 Z M 13 1.398438 L 13.800781 1.398438 L 13.800781 2.601562 L 13 2.601562 Z M 13 1.398438 "/>
</g>
</svg>
