<?xml version="1.0" encoding="UTF-8"?>
<svg xmlns="http://www.w3.org/2000/svg" xmlns:xlink="http://www.w3.org/1999/xlink" width="16px" height="16px" viewBox="0 0 16 16" version="1.1">
<g id="surface1">
<defs>
  <style id="current-color-scheme" type="text/css">
   .ColorScheme-Text { color:#eeeeee; } .ColorScheme-Highlight { color:#424242; }
  </style>
 </defs>
<path style="fill:currentColor" class="ColorScheme-Text" d="M 2 1 L 2 12 L 1 12 L 1 14 L 2 14 L 2 15 L 4 15 L 4 14 L 15 14 L 15 12 L 14 12 L 14 5 L 10 5 L 10 12 L 9 12 L 9 1 L 5 1 L 5 12 L 4 12 L 4 1 Z M 10.199219 1 L 10.199219 3 L 10.601562 3 L 10.601562 1 Z M 11.199219 1 L 11.199219 3 L 12.800781 3 L 12.800781 1 Z M 13.398438 1 L 13.398438 3 L 15 3 L 15 1 Z M 11.601562 1.398438 L 12.398438 1.398438 L 12.398438 2.601562 L 11.601562 2.601562 Z M 13.800781 1.398438 L 14.601562 1.398438 L 14.601562 2.601562 L 13.800781 2.601562 Z M 6 2 L 8 2 L 8 12 L 6 12 Z M 11 6 L 13 6 L 13 12 L 11 12 Z M 11 6 "/>
</g>
</svg>
