<?xml version="1.0" encoding="UTF-8"?>
<svg xmlns="http://www.w3.org/2000/svg" xmlns:xlink="http://www.w3.org/1999/xlink" width="16px" height="16px" viewBox="0 0 16 16" version="1.1">
<g id="surface1">
     <defs>
  <style id="current-color-scheme" type="text/css">
   .ColorScheme-Text { color:#eeeeee; } .ColorScheme-Highlight { color:#3f3f3f; }
  </style>
 </defs>
<path style="fill:currentColor;fill-opacity:0.392157" class="ColorScheme-Text" d="M 4 5.601562 L 6 5.601562 L 8.601562 3.398438 L 11.398438 4.800781 L 14.601562 2.398438 L 14.800781 2.601562 L 14.800781 13 C 12.316406 13 14.132812 13 13.800781 13 L 3.199219 13 L 3.199219 5.601562 Z M 4 5.601562 "/>
     <defs>
  <style id="current-color-scheme" type="text/css">
   .ColorScheme-Text { color:#eeeeee; } .ColorScheme-Highlight { color:#424242; }
  </style>
 </defs>
<path style="fill:currentColor" class="ColorScheme-Text" d="M 2 1 L 2 12 L 1 12 L 1 14 L 2 14 L 2 15 L 4 15 L 4 14 L 15 14 L 15 12 L 4 12 L 4 8 L 5.816406 8 L 8.542969 10.308594 L 11.351562 8.703125 L 14.285156 11.085938 L 14.914062 10.3125 L 11.449219 7.496094 L 8.65625 9.089844 L 6.183594 7 L 4 7 L 4 6 L 6.183594 6 L 8.65625 3.910156 L 11.449219 5.503906 L 14.914062 2.691406 L 14.285156 1.914062 L 11.351562 4.296875 L 8.542969 2.691406 L 5.816406 5 L 4 5 L 4 1 Z M 2 1 "/>
</g>
</svg>
