<svg xmlns="http://www.w3.org/2000/svg" xmlns:xlink="http://www.w3.org/1999/xlink" width="16" height="16" version="1.1" viewBox="0 0 16 16"><defs><filter id="alpha" width="100%" height="100%" x="0%" y="0%" filterUnits="objectBoundingBox"><feColorMatrix in="SourceGraphic" type="matrix" values="0 0 0 0 1 0 0 0 0 1 0 0 0 0 1 0 0 0 1 0"/></filter><mask id="mask0"><g filter="url(#alpha)"><rect width="16" height="16" x="0" y="0" style="fill:#000;fill-opacity:.85;stroke:none"/></g></mask><clipPath id="clip1"><rect width="16" height="16" x="0" y="0"/></clipPath><g id="surface5" clip-path="url(#clip1)"><path style="stroke:none;fill-rule:nonzero;fill:#66bb6a;fill-opacity:1" d="M 1 14 L 15 14 L 15 15 L 1 15 Z M 1 14"/></g></defs><g id="surface1"><defs><style id="current-color-scheme" type="text/css">.ColorScheme-Text{color:#eee}</style></defs><path style="fill:currentColor" d="M 8 1 C 5.230469 1 3 3.082031 3 5.667969 L 3 13 L 5 13 L 5 9 L 11 9 L 11 13 L 13 13 L 13 5.667969 C 13 3.082031 10.769531 1 8 1 Z M 8 3 C 9.660156 3 11 4.488281 11 6.332031 L 11 7 L 5 7 L 5 6.332031 C 5 4.488281 6.339844 3 8 3 Z M 8 3" class="ColorScheme-Text"/><use mask="url(#mask0)" xlink:href="#surface5"/></g></svg>