<?xml version="1.0" encoding="UTF-8"?>
<svg xmlns="http://www.w3.org/2000/svg" xmlns:xlink="http://www.w3.org/1999/xlink" width="16px" height="16px" viewBox="0 0 16 16" version="1.1">
<g id="surface1">
     <defs>
  <style id="current-color-scheme" type="text/css">
     .ColorScheme-Text { color:#eeeeee; } .ColorScheme-Highlight { color:#424242; }
  </style>
 </defs>
<path style="fill:currentColor" class="ColorScheme-Text" d="M 1 1 L 1 3 L 3 3 L 3 1 Z M 3 3 L 3 5 L 5 5 L 5 3 Z M 5 3 L 7 3 L 7 1 L 5 1 Z M 5 5 L 5 7 L 7 7 L 7 5 Z M 3 5 L 1 5 L 1 7 L 3 7 Z M 9 1 L 9 3 L 11 3 L 11 1 Z M 11 3 L 11 5 L 13 5 L 13 3 Z M 13 3 L 15 3 L 15 1 L 13 1 Z M 13 5 L 13 7 L 15 7 L 15 5 Z M 11 5 L 9 5 L 9 7 L 11 7 Z M 5 9 L 5 11 L 11 11 L 11 9 Z M 11 11 L 11 13 L 13 13 L 13 11 Z M 13 13 L 13 15 L 15 15 L 15 13 Z M 5 11 L 3 11 L 3 13 L 5 13 Z M 3 13 L 1 13 L 1 15 L 3 15 Z M 3 13 "/>
</g>
</svg>
