<?xml version="1.0" encoding="UTF-8"?>
<svg xmlns="http://www.w3.org/2000/svg" xmlns:xlink="http://www.w3.org/1999/xlink" width="16px" height="16px" viewBox="0 0 16 16" version="1.1">
<g id="surface1">
     <defs>
  <style id="current-color-scheme" type="text/css">
     .ColorScheme-Text { color:#eeeeee; } .ColorScheme-Highlight { color:#424242; }
  </style>
 </defs>
<path style="fill:currentColor" class="ColorScheme-Text" d="M 6 1 C 3.230469 1 1 3.230469 1 6 C 1 7.640625 1.785156 9.09375 3 10.003906 C 3 10.003906 3 10.003906 3 10 C 3 9.140625 3.15625 8.316406 3.4375 7.554688 C 3.160156 7.101562 3 6.570312 3 6 C 3 4.335938 4.339844 3 6 3 C 6.570312 3 7.101562 3.160156 7.554688 3.4375 C 8.316406 3.152344 9.140625 3 10 3 C 10.003906 3 10.003906 3 10.007812 3 C 9.09375 1.785156 7.644531 1 6 1 Z M 10 5 C 7.230469 5 5 7.230469 5 10 C 5 12.769531 7.230469 15 10 15 C 12.769531 15 15 12.769531 15 10 C 15 7.230469 12.769531 5 10 5 Z M 10 7 C 11.660156 7 13 8.339844 13 10 C 13 11.660156 11.660156 13 10 13 C 8.339844 13 7 11.660156 7 10 C 7 8.339844 8.339844 7 10 7 Z M 10 9 C 9.445312 9 9 9.445312 9 10 C 9 10.554688 9.445312 11 10 11 C 10.554688 11 11 10.554688 11 10 C 11 9.445312 10.554688 9 10 9 Z M 10 9 "/>
</g>
</svg>
