<?xml version="1.0" encoding="UTF-8"?>
<svg xmlns="http://www.w3.org/2000/svg" xmlns:xlink="http://www.w3.org/1999/xlink" width="16px" height="16px" viewBox="0 0 16 16" version="1.1">
<g id="surface1">
     <defs>
  <style id="current-color-scheme" type="text/css">
     .ColorScheme-Text { color:#eeeeee; } .ColorScheme-Highlight { color:#424242; }
  </style>
 </defs>
<path style="fill:currentColor" class="ColorScheme-Text" d="M 8 1 C 4.121094 1 1 4.121094 1 8 C 1 11.878906 4.121094 15 8 15 C 11.878906 15 15 11.878906 15 8 C 15 4.121094 11.878906 1 8 1 Z M 8 3 C 10.769531 3 13 5.230469 13 8 C 13 10.769531 10.769531 13 8 13 C 5.230469 13 3 10.769531 3 8 C 3 5.230469 5.230469 3 8 3 Z M 8 5 C 7.691406 5 7.394531 5.046875 7.113281 5.132812 C 7.636719 5.367188 8 5.886719 8 6.5 C 8 7.332031 7.332031 8 6.5 8 C 5.886719 8 5.367188 7.636719 5.132812 7.113281 C 5.046875 7.394531 5 7.691406 5 8 C 5 9.660156 6.339844 11 8 11 C 9.660156 11 11 9.660156 11 8 C 11 6.339844 9.660156 5 8 5 Z M 8 5 "/>
</g>
</svg>
