<?xml version="1.0" encoding="UTF-8"?>
<svg xmlns="http://www.w3.org/2000/svg" xmlns:xlink="http://www.w3.org/1999/xlink" width="16px" height="16px" viewBox="0 0 16 16" version="1.1">
<g id="surface1">
     <defs>
  <style id="current-color-scheme" type="text/css">
     .ColorScheme-Text { color:#eeeeee; } .ColorScheme-Highlight { color:#424242; }
  </style>
 </defs>
<path style="fill:currentColor" class="ColorScheme-Text" d="M 2 1 L 2 3.269531 C 1.402344 3.613281 1 4.257812 1 5 C 1 5.742188 1.402344 6.386719 2 6.730469 L 2 15 L 4 15 L 4 6.730469 C 4.597656 6.386719 5 5.742188 5 5 C 5 4.257812 4.597656 3.613281 4 3.269531 L 4 1 Z M 7 1 L 7 9.269531 C 6.402344 9.613281 6 10.257812 6 11 C 6 11.742188 6.402344 12.386719 7 12.730469 L 7 15 L 9 15 L 9 12.730469 C 9.597656 12.386719 10 11.742188 10 11 C 10 10.257812 9.597656 9.613281 9 9.269531 L 9 1 Z M 12 1 L 12 6.269531 C 11.402344 6.613281 11 7.257812 11 8 C 11 8.742188 11.402344 9.386719 12 9.730469 L 12 15 L 14 15 L 14 9.730469 C 14.597656 9.386719 15 8.742188 15 8 C 15 7.257812 14.597656 6.613281 14 6.269531 L 14 1 Z M 3 4 C 3.554688 4 4 4.445312 4 5 C 4 5.554688 3.554688 6 3 6 C 2.445312 6 2 5.554688 2 5 C 2 4.445312 2.445312 4 3 4 Z M 13 7 C 13.554688 7 14 7.445312 14 8 C 14 8.554688 13.554688 9 13 9 C 12.445312 9 12 8.554688 12 8 C 12 7.445312 12.445312 7 13 7 Z M 8 10 C 8.554688 10 9 10.445312 9 11 C 9 11.554688 8.554688 12 8 12 C 7.445312 12 7 11.554688 7 11 C 7 10.445312 7.445312 10 8 10 Z M 8 10 "/>
</g>
</svg>
