<svg xmlns="http://www.w3.org/2000/svg" xmlns:xlink="http://www.w3.org/1999/xlink" width="16" height="16" version="1.1" viewBox="0 0 16 16"><g id="surface1"><defs><style id="current-color-scheme" type="text/css">.ColorScheme-Text{color:#eee}</style></defs><path style="fill:currentColor" d="M 1 1 L 1 6 L 3 6 L 3 3 L 6 3 L 6 1 Z M 10 1 L 10 3 L 13 3 L 13 6 L 15 6 L 15 1 Z M 5 5 L 5 11 L 11 11 L 11 5 Z M 7 7 L 9 7 L 9 9 L 7 9 Z M 1 10 L 1 15 L 6 15 L 6 13 L 3 13 L 3 10 Z M 13 10 L 13 13 L 10 13 L 10 15 L 15 15 L 15 10 Z M 13 10" class="ColorScheme-Text"/></g></svg>