<?xml version="1.0" encoding="UTF-8"?>
<svg xmlns="http://www.w3.org/2000/svg" xmlns:xlink="http://www.w3.org/1999/xlink" width="16px" height="16px" viewBox="0 0 16 16" version="1.1">
<g id="surface1">
<defs>
  <style id="current-color-scheme" type="text/css">
   .ColorScheme-Text { color:#eeeeee; } .ColorScheme-Highlight { color:#424242; }
  </style>
 </defs>
<path style="fill:currentColor" class="ColorScheme-Text" d="M 1 1 L 1 15 L 15 15 L 15 1 Z M 3 3 L 13 3 L 13 5 L 3 5 Z M 3 6 L 13 6 L 13 13 L 3 13 Z M 4 7 L 4 9 L 6 9 L 6 7 Z M 7 7 L 7 8 L 12 8 L 12 7 Z M 7 9 L 7 10 L 12 10 L 12 9 Z M 7 11 L 7 12 L 12 12 L 12 11 Z M 7 11 "/>
</g>
</svg>
