<?xml version="1.0" encoding="UTF-8"?>
<svg xmlns="http://www.w3.org/2000/svg" xmlns:xlink="http://www.w3.org/1999/xlink" width="16px" height="16px" viewBox="0 0 16 16" version="1.1">
<g id="surface1">
     <defs>
  <style id="current-color-scheme" type="text/css">
     .ColorScheme-Text { color:#eeeeee; } .ColorScheme-Highlight { color:#424242; }
  </style>
 </defs>
<path style="fill:currentColor" class="ColorScheme-Text" d="M 13.65625 0.929688 L 0.929688 13.65625 L 2.34375 15.074219 L 15.070312 2.34375 Z M 8 1 C 4.121094 1 1 4.125 1 8 C 1 8.828125 1.144531 9.621094 1.402344 10.355469 L 3.050781 8.707031 C 3.019531 8.476562 3 8.242188 3 8 C 3 5.230469 5.230469 3 8 3 C 8.242188 3 8.476562 3.019531 8.707031 3.050781 L 10.351562 1.40625 C 9.617188 1.144531 8.828125 1 8 1 Z M 14.597656 5.648438 L 12.949219 7.292969 C 12.980469 7.523438 13 7.761719 13 8 C 13 10.769531 10.769531 13 8 13 C 7.757812 13 7.523438 12.984375 7.292969 12.949219 L 5.644531 14.597656 C 6.382812 14.859375 7.171875 15 8 15 C 11.878906 15 15 11.878906 15 8 C 15 7.175781 14.855469 6.382812 14.597656 5.648438 Z M 5.921875 5.835938 C 5.894531 5.863281 5.863281 5.894531 5.835938 5.925781 Z M 10.164062 10.078125 L 10.078125 10.167969 C 10.105469 10.136719 10.136719 10.109375 10.164062 10.078125 Z M 10.164062 10.078125 "/>
</g>
</svg>
