<svg xmlns="http://www.w3.org/2000/svg" xmlns:xlink="http://www.w3.org/1999/xlink" width="16" height="16" version="1.1" viewBox="0 0 16 16"><g id="surface1"><defs><style id="current-color-scheme" type="text/css">.ColorScheme-Text{color:#eee}</style></defs><path style="fill:currentColor" d="M 4 1 L 4 2 L 1 2 L 1 15 L 15 15 L 15 2 L 12 2 L 12 1 L 10 1 L 10 2 L 6 2 L 6 1 Z M 3 4 L 13 4 L 13 6 L 3 6 Z M 3 7 L 13 7 L 13 13 L 3 13 Z M 4 9 L 4 11 L 6 11 L 6 9 Z M 7 9 L 7 11 L 9 11 L 9 9 Z M 10 9 L 10 11 L 12 11 L 12 9 Z M 10 9" class="ColorScheme-Text"/></g></svg>