<?xml version="1.0" encoding="UTF-8"?>
<svg xmlns="http://www.w3.org/2000/svg" xmlns:xlink="http://www.w3.org/1999/xlink" width="16px" height="16px" viewBox="0 0 16 16" version="1.1">
<g id="surface1">
     <defs>
  <style id="current-color-scheme" type="text/css">
     .ColorScheme-Text { color:#eeeeee; } .ColorScheme-Highlight { color:#424242; }
  </style>
 </defs>
<path style="fill:currentColor" class="ColorScheme-Text" d="M 1 1 L 1 3 L 15 3 L 15 1 Z M 13 5 L 13 10.144531 C 12.6875 10.050781 12.351562 10 12 10 C 10.339844 10 9 11.113281 9 12.5 C 9 13.886719 10.339844 15 12 15 C 13.660156 15 15 13.886719 15 12.5 C 15 12.464844 14.996094 12.433594 14.992188 12.398438 L 15 12.398438 L 15 5 Z M 1 5 L 1 7 L 8 7 L 8 5 Z M 1 9 L 1 11 L 8 11 L 8 9 Z M 1 13 L 1 15 L 8 15 L 8 13 Z M 1 13 "/>
</g>
</svg>
