<?xml version="1.0" encoding="UTF-8"?>
<svg xmlns="http://www.w3.org/2000/svg" xmlns:xlink="http://www.w3.org/1999/xlink" width="16px" height="16px" viewBox="0 0 16 16" version="1.1">
<g id="surface1">
     <defs>
  <style id="current-color-scheme" type="text/css">
     .ColorScheme-Text { color:#eeeeee; } .ColorScheme-Highlight { color:#424242; }
  </style>
 </defs>
<path style="fill:currentColor" class="ColorScheme-Text" d="M 6 1 L 6 3 L 5 3 L 5 5 L 4 5 L 4 4 L 3 4 L 3 7 L 2 7 L 2 8 L 1 8 L 1 9 L 2 9 L 2 10 L 3 10 L 3 13 L 4 13 L 4 11 L 5 11 L 5 13 L 6 13 L 6 15 L 7 15 L 7 11 L 8 11 L 8 10 L 9 10 L 9 13 L 10 13 L 10 11 L 11 11 L 11 12 L 12 12 L 12 11 L 13 11 L 13 10 L 14 10 L 14 9 L 15 9 L 15 8 L 14 8 L 14 7 L 13 7 L 13 6 L 12 6 L 12 5 L 11 5 L 11 6 L 10 6 L 10 4 L 9 4 L 9 7 L 8 7 L 8 6 L 7 6 L 7 1 Z M 6 1 "/>
</g>
</svg>
