<?xml version="1.0" encoding="UTF-8"?>
<svg xmlns="http://www.w3.org/2000/svg" xmlns:xlink="http://www.w3.org/1999/xlink" width="16px" height="16px" viewBox="0 0 16 16" version="1.1">
<g id="surface1">
     <defs>
  <style id="current-color-scheme" type="text/css">
     .ColorScheme-Text { color:#eeeeee; } .ColorScheme-Highlight { color:#424242; }
  </style>
 </defs>
<path style="fill:currentColor" class="ColorScheme-Text" d="M 4.5 1.9375 C 1.4375 3.707031 0.21875 7.410156 1.5 10.597656 L 3.253906 9.585938 C 2.511719 7.371094 3.398438 4.882812 5.5 3.667969 C 6.921875 2.847656 8.570312 2.804688 9.964844 3.402344 L 8.230469 4.402344 L 9.230469 6.132812 L 12.695312 4.132812 L 13.5 3.667969 C 11.382812 0.964844 7.5625 0.167969 4.5 1.9375 Z M 2.5 12.332031 C 4.617188 15.035156 8.4375 15.832031 11.5 14.0625 C 14.5625 12.292969 15.78125 8.589844 14.5 5.402344 L 12.746094 6.414062 C 13.488281 8.628906 12.601562 11.117188 10.5 12.332031 C 9.078125 13.152344 7.429688 13.195312 6.035156 12.597656 L 7.769531 11.597656 L 6.769531 9.867188 L 4.253906 11.316406 L 3.304688 11.867188 Z M 2.5 12.332031 "/>
</g>
</svg>
