<svg xmlns="http://www.w3.org/2000/svg" xmlns:xlink="http://www.w3.org/1999/xlink" id="flag-icons-uz" viewBox="0 0 640 480"><path fill="#1eb53a" d="M0 320h640v160H0z"/><path fill="#0099b5" d="M0 0h640v160H0z"/><path fill="#ce1126" d="M0 153.6h640v172.8H0z"/><path fill="#fff" d="M0 163.2h640v153.6H0z"/><circle cx="134.4" cy="76.8" r="57.6" fill="#fff"/><circle cx="153.6" cy="76.8" r="57.6" fill="#0099b5"/><g fill="#fff" transform="translate(261.1 122.9)scale(1.92)"><g id="uz-e"><g id="uz-d"><g id="uz-c"><g id="uz-b"><path id="uz-a" d="M0-6-1.9-.3 1 .7"/><use width="100%" height="100%" transform="scale(-1 1)" xlink:href="#uz-a"/></g><use width="100%" height="100%" transform="rotate(72)" xlink:href="#uz-b"/></g><use width="100%" height="100%" transform="rotate(-72)" xlink:href="#uz-b"/><use width="100%" height="100%" transform="rotate(144)" xlink:href="#uz-c"/></g><use width="100%" height="100%" y="-24" xlink:href="#uz-d"/><use width="100%" height="100%" y="-48" xlink:href="#uz-d"/></g><use width="100%" height="100%" x="24" xlink:href="#uz-e"/><use width="100%" height="100%" x="48" xlink:href="#uz-e"/><use width="100%" height="100%" x="-48" xlink:href="#uz-d"/><use width="100%" height="100%" x="-24" xlink:href="#uz-d"/><use width="100%" height="100%" x="-24" y="-24" xlink:href="#uz-d"/></g></svg>